{
  "accessors": [
    {
      "bufferView": 2,
      "componentType": 5126,
      "count": 25136,
      "max": [
        673.5057983398438,
        329.36553955078125,
        759.4111938476563
      ],
      "min": [
        -357.54693603515625,
        -140.77743530273438,
        -622.2496337890625
      ],
      "type": "VEC3"
    },
    {
      "bufferView": 2,
      "byteOffset": 301632,
      "componentType": 5126,
      "count": 25136,
      "max": [
        0.9999915957450867,
        1.0,
        0.999994695186615
      ],
      "min": [
        -0.9999845623970032,
        -1.0,
        -0.9999942183494568
      ],
      "type": "VEC3"
    },
    {
      "bufferView": 1,
      "componentType": 5126,
      "count": 25136,
      "max": [
        0.9952960014343262,
        0.9708042144775391
      ],
      "min": [
        0.0,
        0.0
      ],
      "type": "VEC2"
    },
    {
      "bufferView": 0,
      "componentType": 5125,
      "count": 38724,
      "type": "SCALAR"
    },
    {
      "bufferView": 2,
      "byteOffset": 603264,
      "componentType": 5126,
      "count": 34682,
      "max": [
        562.2547607421875,
        587.7056274414063,
        636.35595703125
      ],
      "min": [
        -284.1271667480469,
        -94.41926574707031,
        -511.1457214355469
      ],
      "type": "VEC3"
    },
    {
      "bufferView": 2,
      "byteOffset": 1019448,
      "componentType": 5126,
      "count": 34682,
      "max": [
        1.0,
        1.0,
        1.0
      ],
      "min": [
        -1.0,
        -1.0,
        -1.0
      ],
      "type": "VEC3"
    },
    {
      "bufferView": 1,
      "byteOffset": 201088,
      "componentType": 5126,
      "count": 34682,
      "max": [
        0.9979543685913086,
        0.9969514608383179
      ],
      "min": [
        0.0038148164749145508,
        0.008366730995476246
      ],
      "type": "VEC2"
    },
    {
      "bufferView": 0,
      "byteOffset": 154896,
      "componentType": 5125,
      "count": 64761,
      "type": "SCALAR"
    }
  ],
  "asset": {
    "extras": {
      "author": "MaaikeWaegebaert (https://sketchfab.com/MaaikeWaegebaert)",
      "license": "CC-BY-4.0 (http://creativecommons.org/licenses/by/4.0/)",
      "source": "https://sketchfab.com/3d-models/dae-villages-ancient-egyptian-scroll-maker-6253367f23bf42c689ba614a1d6a835a",
      "title": "DAE Villages | Ancient Egyptian Scroll Maker"
    },
    "generator": "Sketchfab-12.68.0",
    "version": "2.0"
  },
  "bufferViews": [
    {
      "buffer": 0,
      "byteLength": 413940,
      "name": "floatBufferViews",
      "target": 34963
    },
    {
      "buffer": 0,
      "byteLength": 478544,
      "byteOffset": 413940,
      "byteStride": 8,
      "name": "floatBufferViews",
      "target": 34962
    },
    {
      "buffer": 0,
      "byteLength": 1435632,
      "byteOffset": 892484,
      "byteStride": 12,
      "name": "floatBufferViews",
      "target": 34962
    }
  ],
  "buffers": [
    {
      "byteLength": 2328116,
      "uri": "scene.bin"
    }
  ],
  "extensionsRequired": [
    "KHR_materials_pbrSpecularGlossiness"
  ],
  "extensionsUsed": [
    "KHR_materials_pbrSpecularGlossiness"
  ],
  "images": [
    {
      "uri": "textures/Vegetation3_diffuse.jpeg"
    },
    {
      "uri": "textures/Bookstore1_diffuse.jpeg"
    }
  ],
  "materials": [
    {
      "doubleSided": true,
      "extensions": {
        "KHR_materials_pbrSpecularGlossiness": {
          "diffuseFactor": [
            1.0,
            1.0,
            1.0,
            1.0
          ],
          "diffuseTexture": {
            "index": 0
          },
          "glossinessFactor": 0.6584467199604345,
          "specularFactor": [
            0.0,
            0.0,
            0.0
          ]
        }
      },
      "name": "Vegetation3"
    },
    {
      "doubleSided": true,
      "extensions": {
        "KHR_materials_pbrSpecularGlossiness": {
          "diffuseFactor": [
            1.0,
            1.0,
            1.0,
            1.0
          ],
          "diffuseTexture": {
            "index": 1
          },
          "glossinessFactor": 0.4581578183933255,
          "specularFactor": [
            0.0,
            0.0,
            0.0
          ]
        }
      },
      "name": "Bookstore1"
    }
  ],
  "meshes": [
    {
      "name": "GameArt_Vegetation3_0",
      "primitives": [
        {
          "attributes": {
            "NORMAL": 1,
            "POSITION": 0,
            "TEXCOORD_0": 2
          },
          "indices": 3,
          "material": 0,
          "mode": 4
        }
      ]
    },
    {
      "name": "GameArt_Bookstore1_0",
      "primitives": [
        {
          "attributes": {
            "NORMAL": 5,
            "POSITION": 4,
            "TEXCOORD_0": 6
          },
          "indices": 7,
          "material": 1,
          "mode": 4
        }
      ]
    }
  ],
  "nodes": [
    {
      "children": [
        1
      ],
      "matrix": [
        1.0,
        0.0,
        0.0,
        0.0,
        0.0,
        2.220446049250313e-16,
        -1.0,
        0.0,
        0.0,
        1.0,
        2.220446049250313e-16,
        0.0,
        0.0,
        0.0,
        0.0,
        1.0
      ],
      "name": "Sketchfab_model"
    },
    {
      "children": [
        2
      ],
      "matrix": [
        1.0,
        0.0,
        0.0,
        0.0,
        0.0,
        0.0,
        1.0,
        0.0,
        0.0,
        -1.0,
        0.0,
        0.0,
        0.0,
        0.0,
        0.0,
        1.0
      ],
      "name": "43b167d7effe4115bf918f148a3218ed.fbx"
    },
    {
      "children": [
        3
      ],
      "name": "RootNode"
    },
    {
      "children": [
        4,
        5
      ],
      "matrix": [
        1.0,
        0.0,
        0.0,
        0.0,
        0.0,
        1.0,
        0.0,
        0.0,
        0.0,
        0.0,
        1.0,
        0.0,
        0.0,
        0.0,
        40.052913665771484,
        1.0
      ],
      "name": "GameArt"
    },
    {
      "mesh": 0,
      "name": "GameArt_Vegetation3_0"
    },
    {
      "mesh": 1,
      "name": "GameArt_Bookstore1_0"
    }
  ],
  "samplers": [
    {
      "magFilter": 9729,
      "minFilter": 9987,
      "wrapS": 10497,
      "wrapT": 10497
    }
  ],
  "scene": 0,
  "scenes": [
    {
      "name": "Sketchfab_Scene",
      "nodes": [
        0
      ]
    }
  ],
  "textures": [
    {
      "sampler": 0,
      "source": 0
    },
    {
      "sampler": 0,
      "source": 1
    }
  ]
}
